Coordinates
version=1
nRows=13
nColumns=34
inDegrees=yes

Units are S.I. units (second, meters, Newtons, ...)
If the header above contains a line with 'inDegrees', this indicates whether rotational values are in degrees (yes) or radians (no).

endheader
time	pelvis_tilt	pelvis_list	pelvis_rotation	pelvis_tx	pelvis_ty	pelvis_tz	hip_flexion_r	hip_adduction_r	hip_rotation_r	knee_angle_r	ankle_angle_r	subtalar_angle_r	mtp_angle_r	hip_flexion_l	hip_adduction_l	hip_rotation_l	knee_angle_l	ankle_angle_l	subtalar_angle_l	mtp_angle_l	lumbar_extension	lumbar_bending	lumbar_rotation	arm_flex_r	arm_add_r	arm_rot_r	elbow_flex_r	pro_sup_r	arm_flex_l	arm_add_l	arm_rot_l	elbow_flex_l	pro_sup_l
      0.00000000	     -0.78928924	     -1.10578793	     -2.36502986	      1.86672321	      0.91891735	     -0.16183245	      0.80155886	     -3.86021636	      0.09947677	      5.56221732	      2.83356977	    -14.51105466	      0.00000000	     -1.74660736	     -8.52558868	     -5.86734844	      4.24963885	      8.36102729	     -3.18038771	      0.00000000	     -8.40791987	      1.45760754	     -3.31882878	     13.36529061	     -6.42828351	     39.41080914	     82.19125629	     97.63715280	      3.58466397	     -6.15129937	     26.41109291	     84.51947906	     95.73610223
      0.01666670	     -2.90546577	     -0.68897865	     -2.30994522	      1.86951161	      0.91739163	     -0.16231247	      3.02216537	     -4.05192705	      1.23649111	      5.50244212	      5.92358877	    -12.72912105	      0.00000000	      1.24915520	     -7.86979561	     -5.59637923	      4.42973956	      8.74266052	     -1.69893463	      0.00000000	     -5.35333769	      1.48979689	     -3.36319954	     11.50441383	     -5.92672341	     36.60058306	     81.54336373	     96.78711449	      2.20259682	     -6.26923028	     25.76596781	     84.28643203	     95.03581877
      0.03333330	     -3.10923974	     -0.00486116	     -2.48162842	      1.86987606	      0.91778981	     -0.16164296	      2.71628732	     -4.93763673	      1.07270091	      4.35067769	      5.69086139	    -12.54668931	      0.00000000	      1.11906919	     -7.30884812	     -6.07624529	      3.59682726	      7.83230725	     -1.35187709	      0.00000000	     -5.02302074	      0.72246958	     -2.94123179	     11.29696061	     -5.79191162	     36.26758904	     81.09198717	     96.61064619	      2.45584079	     -6.67919302	     25.53696599	     83.67384997	     94.77521221
      0.05000000	     -2.52706595	      0.39308202	     -2.53759952	      1.86990605	      0.91941007	     -0.16118721	      1.61204665	     -5.45610534	      1.45833052	      3.45685806	      5.87408035	    -12.65684039	      0.00000000	     -0.24870681	     -6.85264771	     -6.01619048	      2.38616547	      7.10050145	     -1.73536978	      0.00000000	     -5.62488694	      0.13636301	     -2.32706374	     11.05893462	     -5.75964453	     35.87627462	     80.36485076	     96.37534365	      3.26976084	     -6.90342537	     25.67684235	     82.74808147	     94.49369414
      0.06666670	     -1.99825160	      0.63941456	     -2.51465585	      1.87011225	      0.91983762	     -0.16124286	      0.62451164	     -5.71150280	      1.85924399	      2.65826995	      5.82224451	    -13.24855087	      0.00000000	     -1.28214287	     -6.50960096	     -5.53524501	      1.55287566	      6.71935981	     -2.33015779	      0.00000000	     -6.27858403	     -0.05030982	     -1.87023724	     10.96949260	     -5.95000968	     36.13181055	     80.78340145	     96.17437556	      3.94900994	     -6.95646287	     26.49554431	     82.22479362	     94.39798156
      0.08333330	     -1.98668576	      0.67258038	     -2.49484454	      1.86988714	      0.92002612	     -0.16097346	      0.64325691	     -5.67514662	      1.86369985	      2.63507978	      5.82958252	    -13.25224357	      0.00000000	     -1.29075641	     -6.48647040	     -5.53499151	      1.55193237	      6.72018408	     -2.33319244	      0.00000000	     -6.28204821	     -0.04953279	     -1.86691944	     10.96816127	     -5.94429128	     36.13653004	     80.78617804	     96.17397398	      3.95162225	     -6.94936086	     26.49976368	     82.22499143	     94.39813783
      0.10000000	     -1.30004154	      0.86043518	     -2.34573641	      1.87005239	      0.92081139	     -0.16077453	     -0.59372588	     -5.87616129	      2.69823190	      1.76974923	      5.58707926	    -14.69244104	      0.00000000	     -2.34838027	     -6.15855131	     -4.77101684	      0.85905911	      5.99442194	     -3.42036349	      0.00000000	     -7.26514233	     -0.31353656	     -1.37144676	     11.11012596	     -6.28094644	     37.19304189	     81.87889926	     95.90159719	      4.99252104	     -6.74968472	     27.86492873	     81.61442134	     94.52711281
      0.11666670	     -1.31570768	      0.90023910	     -2.22916167	      1.87027202	      0.92080120	     -0.16020110	     -0.64413616	     -5.87429059	      2.74100584	      1.70157814	      5.62944244	    -14.73701835	      0.00000000	     -2.31706384	     -6.11729904	     -4.75314617	      0.82112318	      5.96920159	     -3.42813864	      0.00000000	     -7.26004566	     -0.30545031	     -1.30904608	     11.11900561	     -6.22644002	     37.22870971	     81.91527514	     95.89156365	      5.02278627	     -6.72335977	     27.88524624	     81.61925318	     94.52972834
      0.13333330	     -1.36932412	      0.94369971	     -2.10369186	      1.87067670	      0.92072848	     -0.15966703	     -0.78834555	     -5.86342021	      2.84079238	      1.38288078	      5.79750396	    -14.97766426	      0.00000000	     -2.29700379	     -6.08533959	     -4.61901962	      0.70379509	      5.79410890	     -3.41316827	      0.00000000	     -7.29005194	     -0.37020987	     -1.24179014	     11.08017828	     -6.16996636	     37.39702297	     82.05830724	     95.86318466	      5.19505638	     -6.69567246	     27.92704700	     81.57264733	     94.53597069
      0.15000000	     -0.88692256	      0.94112909	     -2.04547332	      1.87089800	      0.92162899	     -0.15965346	     -1.54384011	     -5.84273037	      3.49936523	      1.00327489	      4.84614734	    -16.49025207	      0.00000000	     -3.05345758	     -6.05089415	     -4.11646725	      0.27602616	      5.04541921	     -4.21681790	      0.00000000	     -7.88775173	     -0.35556895	     -1.02511009	     11.19779465	     -6.88329845	     38.24960418	     83.12810743	     95.46549928	      5.82778006	     -6.72639890	     28.67525078	     80.75423234	     94.59103450
      0.16666670	     -0.92475068	      0.93334075	     -1.95680681	      1.87120577	      0.92230851	     -0.15973618	     -1.61791245	     -5.78286821	      3.54447592	      0.83231163	      4.89425042	    -16.65425179	      0.00000000	     -3.00947870	     -6.08021378	     -4.05617596	      0.27947409	      4.86427628	     -4.15926191	      0.00000000	     -7.90675708	     -0.34612694	     -0.94611787	     11.17316615	     -7.02570170	     38.23100933	     83.10979476	     95.40420323	      5.93531813	     -6.84900825	     28.63893324	     80.72428389	     94.58474350
      0.18333330	     -0.94071888	      0.94697295	     -1.93868389	      1.87190190	      0.92282172	     -0.15937579	     -1.61265332	     -5.76786612	      3.54835315	      0.82600180	      4.89079281	    -16.65745775	      0.00000000	     -3.02611200	     -6.08049021	     -4.05446781	      0.28553508	      4.85589491	     -4.15622057	      0.00000000	     -7.91370066	     -0.34542540	     -0.94427536	     11.17180449	     -7.03443942	     38.23079202	     83.10889741	     95.40229204	      5.93535191	     -6.85338170	     28.63802733	     80.72004110	     94.58442670
      0.20000000	     -0.63364262	      0.84677359	     -1.79063077	      1.87292332	      0.92293771	     -0.15875141	     -2.27951889	     -5.62663285	      4.23933291	      0.30642997	      3.80137807	    -18.37716097	      0.00000000	     -3.51913952	     -6.21628324	     -3.80861833	      0.00000000	      4.30958181	     -4.10019818	      0.00000000	     -8.31923538	     -0.28419750	     -0.61727794	     10.98257891	     -7.58304893	     38.31200578	     83.54110745	     94.44955945	      6.35897337	     -6.82194717	     28.91583629	     80.00735476	     94.41203407
